<svg id="Calque_1" xmlns="http://www.w3.org/2000/svg" viewBox="0 0 340.2 396.2"><style>.st0{fill:#b8b8b8}.st1{fill:#ddd}.st2{fill:#a6a6a6}.st3{fill:#949494}.st4{fill:#868686}</style><path class="st0" d="M0 141.7V85l56.7 28.4z"/><path class="st1" d="M56.7 56.7v56.7L0 85z"/><path class="st2" d="M56.7 113.4v56.7L0 141.7z"/><path class="st2" d="M0 198.1v-56.7l56.7 28.4z"/><path class="st0" d="M0 254.8v-56.7l56.7 28.4z"/><path class="st1" d="M56.7 169.8v56.7L0 198.1z"/><path class="st2" d="M56.7 226.5v56.7L0 254.8z"/><path class="st3" d="M0 311.2v-56.7l56.7 28.4z"/><path class="st4" d="M56.7 282.9v56.6L0 311.2z"/><path class="st2" d="M113.4 85V28.3l56.7 28.4z"/><path class="st0" d="M170.1 0v56.7l-56.7-28.4z"/><path class="st1" d="M113.4 28.3V85L56.7 56.7z"/><path class="st2" d="M56.7 113.4V56.7L113.4 85z"/><path class="st0" d="M170.1 113.4v56.7l-56.7-28.4z"/><path class="st2" d="M113.4 198.1v-56.7l56.7 28.4z"/><path class="st3" d="M170.1 169.8v56.7l-56.7-28.4z"/><path class="st1" d="M113.4 311.5v-56.7l56.7 28.4z"/><path class="st0" d="M170.1 283.2v56.7l-56.7-28.4z"/><path class="st3" d="M113.4 367.9v-56.7l56.7 28.3z"/><path class="st1" d="M170.1 56.7V0l56.7 28.3z"/><path class="st4" d="M170.1 339.5v56.7l-56.7-28.3z"/><path class="st3" d="M170.1 396.2v-56.7l56.7 28.4zM226.8 85V28.3l56.7 28.4z"/><path class="st2" d="M226.8 28.3V85l-56.7-28.3z"/><path class="st4" d="M283.5 56.7v56.7L226.8 85z"/><path class="st1" d="M170.1 170.1v-56.7l56.7 28.3z"/><path class="st3" d="M226.8 141.4v56.7l-56.7-28.3z"/><path class="st4" d="M170.1 226.5v-56.7l56.7 28.3z"/><path class="st3" d="M226.8 254.8v56.7l-56.7-28.3z"/><path class="st2" d="M170.1 339.9v-56.7l56.7 28.3z"/><path class="st1" d="M226.8 311.2v56.7l-56.7-28.4z"/><path class="st3" d="M283.5 113.4V56.7L340.2 85z"/><path class="st4" d="M340.2 85v56.7l-56.7-28.3z"/><path class="st2" d="M283.5 170.1v-56.7l56.7 28.3z"/><path class="st1" d="M340.2 141.4v56.7l-56.7-28.3z"/><path class="st2" d="M283.5 226.5v-56.7l56.7 28.3z"/><path class="st3" d="M340.2 198.1v56.7l-56.7-28.3z"/><path class="st0" d="M283.5 283.2v-56.7l56.7 28.3z"/><path class="st2" d="M340.2 254.5v56.7l-56.7-28.3z"/><path class="st4" d="M283.5 339.5v-56.6l56.7 28.3z"/></svg>